<?xml version="1.0" encoding="utf-8"?>
<!-- Generator: Adobe Illustrator 16.0.0, SVG Export Plug-In . SVG Version: 6.00 Build 0)  -->
<!DOCTYPE svg PUBLIC "-//W3C//DTD SVG 1.1//EN" "http://www.w3.org/Graphics/SVG/1.1/DTD/svg11.dtd">
<svg version="1.1" xmlns="http://www.w3.org/2000/svg" xmlns:xlink="http://www.w3.org/1999/xlink" x="0px" y="0px"
	 width="257.947px" height="67.298px" viewBox="0 0 257.947 67.298" enable-background="new 0 0 257.947 67.298"
	 xml:space="preserve">
<g id="Layer_1">
	<g>
		<path fill="#336699" d="M14.831,16.748c-0.123,1.696-0.749,3.031-1.877,4.004c-1.13,0.974-2.618,1.461-4.465,1.461
			c-2.02,0-3.609-0.68-4.767-2.04c-1.158-1.36-1.737-3.227-1.737-5.601V13.61c0-1.515,0.268-2.85,0.801-4.004
			c0.534-1.154,1.297-2.04,2.289-2.657c0.992-0.617,2.145-0.925,3.458-0.925c1.818,0,3.283,0.487,4.394,1.461
			c1.11,0.974,1.753,2.34,1.926,4.101h-3.246c-0.08-1.018-0.363-1.754-0.849-2.213c-0.487-0.458-1.229-0.687-2.225-0.687
			c-1.083,0-1.892,0.387-2.43,1.163c-0.538,0.775-0.813,1.979-0.828,3.609v1.19c0,1.704,0.258,2.948,0.773,3.734
			c0.516,0.787,1.329,1.179,2.44,1.179c1.003,0,1.751-0.229,2.246-0.687c0.495-0.458,0.778-1.167,0.85-2.127H14.831z"/>
		<path fill="#336699" d="M29.906,14.476c0,1.551-0.274,2.911-0.822,4.079c-0.548,1.169-1.333,2.072-2.354,2.707
			c-1.021,0.634-2.192,0.952-3.512,0.952c-1.306,0-2.471-0.313-3.496-0.941c-1.024-0.627-1.818-1.524-2.38-2.689
			c-0.563-1.165-0.848-2.505-0.855-4.02v-0.779c0-1.551,0.28-2.917,0.839-4.097c0.559-1.179,1.349-2.084,2.371-2.716
			c1.021-0.631,2.187-0.947,3.501-0.947c1.313,0,2.479,0.316,3.5,0.947c1.021,0.632,1.811,1.537,2.371,2.716
			c0.559,1.18,0.838,2.542,0.838,4.085V14.476z M27.136,5.444l-2.24,0.006l-1.721-1.451L21.443,5.45l-2.241-0.006l3.031-2.483h1.883
			L27.136,5.444z M26.616,13.762c0-1.652-0.296-2.908-0.888-3.767c-0.591-0.858-1.436-1.288-2.532-1.288
			c-1.09,0-1.931,0.423-2.522,1.271c-0.592,0.848-0.891,2.09-0.898,3.728v0.769c0,1.609,0.295,2.856,0.887,3.744
			c0.592,0.887,1.442,1.332,2.554,1.332c1.089,0,1.927-0.428,2.511-1.283c0.584-0.855,0.88-2.102,0.888-3.739V13.762z M26.129,4.075
			l-0.141-1.234c0.448-0.021,0.771-0.077,0.969-0.167c0.199-0.09,0.297-0.229,0.297-0.417c0-0.432-0.436-0.649-1.309-0.649
			l0.065-1.223c1.046,0,1.833,0.157,2.359,0.471c0.526,0.314,0.79,0.749,0.79,1.304c0,0.347-0.12,0.641-0.362,0.882
			s-0.576,0.388-1,0.438l-0.011,0.595H26.129z"/>
		<path fill="#336699" d="M45.079,21.997h-3.247l-6.32-10.367v10.367h-3.247V6.24h3.247l6.331,10.39V6.24h3.236V21.997z"/>
		<path fill="#336699" d="M60.382,20.006c-0.584,0.699-1.411,1.243-2.478,1.628c-1.068,0.386-2.252,0.579-3.551,0.579
			c-1.363,0-2.559-0.297-3.587-0.893c-1.028-0.595-1.822-1.458-2.381-2.591c-0.559-1.133-0.846-2.464-0.86-3.993v-1.072
			c0-1.573,0.265-2.935,0.795-4.086c0.53-1.15,1.295-2.031,2.295-2.64c0.999-0.61,2.169-0.915,3.511-0.915
			c1.869,0,3.33,0.446,4.383,1.336c1.053,0.892,1.678,2.188,1.873,3.891h-3.16c-0.145-0.902-0.464-1.562-0.958-1.98
			c-0.494-0.418-1.174-0.628-2.041-0.628c-1.103,0-1.944,0.415-2.521,1.244c-0.577,0.83-0.869,2.064-0.876,3.702v1.006
			c0,1.652,0.314,2.9,0.941,3.745c0.628,0.844,1.548,1.266,2.76,1.266c1.219,0,2.088-0.26,2.608-0.779V16.11h-2.954v-2.392h6.201
			V20.006z"/>
		<path fill="#336699" d="M79.743,8.87h-4.827v13.127h-3.247V8.87h-4.761V6.24h12.835V8.87z"/>
		<path fill="#336699" d="M94.418,21.997h-3.247v-6.753H84.84v6.753h-3.247V6.24h3.247v6.385h6.331V6.24h3.247V21.997z"/>
		<path fill="#336699" d="M110.197,14.476c0,1.551-0.273,2.911-0.822,4.079c-0.548,1.169-1.333,2.072-2.354,2.707
			c-1.021,0.634-2.192,0.952-3.512,0.952c-1.306,0-2.471-0.313-3.496-0.941c-1.024-0.627-1.818-1.524-2.381-2.689
			c-0.563-1.165-0.848-2.505-0.855-4.02v-0.779c0-1.551,0.28-2.917,0.839-4.097c0.559-1.179,1.349-2.084,2.371-2.716
			c1.021-0.631,2.187-0.947,3.5-0.947c1.313,0,2.479,0.316,3.501,0.947c1.021,0.632,1.811,1.537,2.371,2.716
			c0.559,1.18,0.838,2.542,0.838,4.085V14.476z M107.643,5.044v0.13l-2.489,0.005l-1.667-1.569l-1.667,1.569l-2.445-0.005V5
			l3.203-2.981h1.818L107.643,5.044z M106.907,13.762c0-1.652-0.296-2.908-0.888-3.767c-0.591-0.858-1.436-1.288-2.532-1.288
			c-1.09,0-1.93,0.423-2.521,1.271c-0.592,0.848-0.892,2.09-0.898,3.728v0.769c0,1.609,0.295,2.856,0.887,3.744
			c0.592,0.887,1.443,1.332,2.554,1.332c1.089,0,1.927-0.428,2.511-1.283c0.584-0.855,0.88-2.102,0.888-3.739V13.762z"/>
		<path fill="#336699" d="M125.37,21.997h-3.246l-6.321-10.367v10.367h-3.246V6.24h3.246l6.331,10.39V6.24h3.236V21.997z"/>
		<path fill="#336699" d="M140.673,20.006c-0.584,0.699-1.411,1.243-2.478,1.628c-1.068,0.386-2.252,0.579-3.551,0.579
			c-1.363,0-2.56-0.297-3.587-0.893c-1.028-0.595-1.822-1.458-2.382-2.591c-0.559-1.133-0.846-2.464-0.859-3.993v-1.072
			c0-1.573,0.265-2.935,0.795-4.086c0.53-1.15,1.295-2.031,2.295-2.64c0.999-0.61,2.17-0.915,3.511-0.915
			c1.869,0,3.33,0.446,4.384,1.336c1.053,0.892,1.678,2.188,1.872,3.891h-3.16c-0.145-0.902-0.464-1.562-0.957-1.98
			c-0.495-0.418-1.175-0.628-2.041-0.628c-1.104,0-1.944,0.415-2.521,1.244c-0.577,0.83-0.869,2.064-0.877,3.702v1.006
			c0,1.652,0.314,2.9,0.942,3.745s1.548,1.266,2.76,1.266c1.219,0,2.088-0.26,2.607-0.779V16.11h-2.954v-2.392h6.201V20.006z"/>
		<path fill="#336699" d="M160.035,8.87h-4.827v13.127h-3.247V8.87h-4.762V6.24h12.836V8.87z"/>
		<path fill="#336699" d="M165.338,21.997h-3.247V6.24h3.247V21.997z"/>
		<path fill="#336699" d="M181.159,21.997h-3.247l-6.319-10.367v10.367h-3.247V6.24h3.247l6.331,10.39V6.24h3.235V21.997z"/>
	</g>
	<g>
		<path fill="#CC0000" d="M2.293,49.172H1.142v-3.749h1.151v-9.372h8.28c2.223,0,3.828,0.615,4.812,1.845
			c0.846,1.033,1.269,2.578,1.269,4.635v11.512c0,2.057-0.644,3.636-1.934,4.738c-1.131,0.974-2.514,1.461-4.147,1.461h-8.28V49.172
			z M7.857,45.423h1.697v3.749H7.857v6.951h1.004c0.659,0,1.19-0.172,1.594-0.517c0.404-0.315,0.605-0.738,0.605-1.269V42.22
			c0-1.368-0.777-2.052-2.332-2.052H7.857V45.423z"/>
		<path fill="#CC0000" d="M22.528,36.051h7.38l4.561,24.19h-5.859l-0.517-4.295h-3.896l-0.576,4.295h-5.564L22.528,36.051z
			 M21.775,34.604l2.509-4.103h4.266l2.169,4.103h-3.144l-1.329-2.302l-1.505,2.302H21.775z M24.771,51.651h2.774L26.247,39.8
			L24.771,51.651z M31.236,26.782h4.236l-2.908,3.675h-2.597L31.236,26.782z"/>
		<path fill="#CC0000" d="M35.885,53.644V36.081h5.564v17.622c0,0.847,0.079,1.461,0.236,1.845c0.148,0.404,0.605,0.605,1.373,0.605
			c0.521,0,0.924-0.157,1.21-0.473c0.256-0.305,0.384-0.964,0.384-1.978V36.081h5.564v17.563c0,2.135-0.644,3.828-1.933,5.077
			c-1.29,1.27-3.031,1.904-5.225,1.904c-2.185,0-3.921-0.625-5.21-1.874C36.54,57.501,35.885,55.798,35.885,53.644z"/>
		<path fill="#CC0000" d="M60.178,53.644V42.678c0-2.283,0.674-4.035,2.022-5.254c1.27-1.151,2.987-1.727,5.151-1.727
			c2.135,0,3.798,0.413,4.988,1.24c1.446,1.003,2.169,2.563,2.169,4.679v2.686h-5.284v-2.406c0-1.27-0.585-1.904-1.756-1.904
			c-0.59,0-1.063,0.271-1.417,0.812c-0.207,0.443-0.31,0.905-0.31,1.387v11.94c0,0.728,0.123,1.293,0.369,1.697
			c0.236,0.345,0.649,0.517,1.24,0.517c1.181,0,1.771-0.605,1.771-1.815v-3.114H67.16v-4.472h7.35v13.298h-4.87v-1.963
			c-1.024,1.564-2.475,2.347-4.354,2.347c-1.791,0-3.139-0.703-4.044-2.11C60.533,57.343,60.178,55.72,60.178,53.644z"/>
		<path fill="#CC0000" d="M77.151,60.241V36.081h5.564v24.161H77.151z"/>
		<path fill="#CC0000" d="M88.811,36.051h7.379l4.561,24.19h-5.859l-0.517-4.295h-3.896l-0.576,4.295h-5.564L88.811,36.051z
			 M91.955,30.501h4.693l-3.203,4.103h-2.907L91.955,30.501z M91.054,51.651h2.775L92.53,39.8L91.054,51.651z"/>
		<path fill="#CC0000" d="M108.75,40.744v-4.664h12.767v4.664h-3.601v19.497h-5.564V40.744H108.75z"/>
		<path fill="#CC0000" d="M123.082,60.241V36.081h7.35c2.479,0,4.271,0.433,5.372,1.298c1.112,0.876,1.668,2.391,1.668,4.546
			c0,1.545-0.183,2.71-0.546,3.498c-0.482,0.974-1.417,1.673-2.805,2.096c1.004,0.177,1.786,0.629,2.347,1.358
			c0.591,0.679,0.886,1.525,0.886,2.539v4.265v1.712c0,0.246,0,0.467,0,0.664c0,0.227,0.021,0.458,0.06,0.694
			c0,0.59,0.172,1.087,0.517,1.491h-5.506c-0.177-0.207-0.339-0.685-0.486-1.432c-0.079-0.64-0.118-1.24-0.118-1.801
			c-0.021-0.57-0.03-1.013-0.03-1.329v-3.881c0-0.659-0.162-1.161-0.486-1.505c-0.315-0.325-0.856-0.487-1.624-0.487h-1.033v10.435
			H123.082z M128.646,40.198v5.505h1.358c0.807,0,1.362-0.275,1.668-0.826l0.177-0.724l0.059-1.298c0-0.945-0.088-1.599-0.266-1.963
			c-0.285-0.462-0.92-0.693-1.903-0.693H128.646z"/>
		<path fill="#CC0000" d="M153.456,33.365h4.103l-0.015,4.014l-1.934,2.037h-1.343l-0.029,14.228c0,2.116-0.645,3.808-1.934,5.077
			c-1.289,1.27-3.04,1.904-5.254,1.904c-2.185,0-3.921-0.625-5.21-1.874c-1.309-1.25-1.963-2.952-1.963-5.107V36.051h5.563v17.652
			c0,0.847,0.079,1.461,0.236,1.845c0.147,0.404,0.605,0.605,1.373,0.605c0.521,0,0.924-0.157,1.21-0.473
			c0.256-0.305,0.384-0.964,0.384-1.978V36.051l4.812,0.059V33.365z M144.512,62.558h5.195v3.572h-5.195V62.558z"/>
		<path fill="#CC0000" d="M156.673,53.644V42.678c0-2.283,0.674-4.035,2.022-5.254c1.27-1.151,2.986-1.727,5.151-1.727
			c2.135,0,3.866,0.595,5.194,1.786c1.309,1.181,1.963,2.913,1.963,5.195v2.229h-5.563V42.19c0-0.581-0.06-1.042-0.178-1.387
			c-0.245-0.541-0.718-0.812-1.416-0.812c-0.67,0-1.137,0.26-1.402,0.782c-0.139,0.423-0.207,0.895-0.207,1.417v11.94
			c0,0.728,0.123,1.293,0.369,1.697c0.236,0.345,0.649,0.517,1.24,0.517c0.658,0,1.121-0.286,1.387-0.856
			c0.138-0.423,0.207-0.876,0.207-1.358v-3.542h5.563v3.055c0,2.135-0.644,3.828-1.933,5.077c-1.289,1.27-3.031,1.904-5.225,1.904
			c-2.185,0-3.921-0.625-5.21-1.874C157.328,57.501,156.673,55.798,156.673,53.644z"/>
		<path fill="#CC0000" d="M180.051,40.744v-4.664h12.767v4.664h-3.601v19.497h-5.564V40.744H180.051z"/>
		<path fill="#CC0000" d="M194.382,53.644V36.081h5.564v17.622c0,0.847,0.078,1.461,0.236,1.845
			c0.147,0.404,0.604,0.605,1.372,0.605c0.521,0,0.926-0.157,1.211-0.473c0.255-0.305,0.384-0.964,0.384-1.978V36.081h5.563v17.563
			c0,2.135-0.645,3.828-1.934,5.077c-1.288,1.27-3.029,1.904-5.225,1.904c-2.184,0-3.921-0.625-5.21-1.874
			C195.036,57.501,194.382,55.798,194.382,53.644z"/>
		<path fill="#CC0000" d="M214.705,50.692l-4.531-14.611h5.742l1.549,8.162l1.683-8.162h5.653l-4.531,14.213v9.948h-5.564V50.692z"
			/>
		<path fill="#CC0000" d="M226.291,36.051h12.368v4.664h-6.804v4.826h5.963v4.664h-5.963v5.373h7.069v4.664h-12.634V36.051z
			 M228.136,34.604l2.51-4.103h4.265l2.17,4.103h-3.144l-1.328-2.302l-1.506,2.302H228.136z M237.39,27.667h4.236l-2.907,3.675
			h-2.598L237.39,27.667z"/>
		<path fill="#CC0000" d="M241.404,60.241V36.081h6.081l4.472,14.242l0.06-14.242h5.387v24.161h-6.051l-4.502-14.937l-0.059,14.937
			H241.404z"/>
	</g>
</g>
<g id="Layer_2">
</g>
</svg>
